<svg width="41" height="26" viewBox="0 0 41 26" fill="none" xmlns="http://www.w3.org/2000/svg">
<g clip-path="url(#clip0_7895_31558)">
<path d="M37.8028 5.15015H3.19718C1.98372 5.15015 1 6.18562 1 7.46293V19.4123C1 20.6897 1.98372 21.7251 3.19718 21.7251H37.8028C39.0163 21.7251 40 20.6897 40 19.4123V7.46293C40 6.18562 39.0163 5.15015 37.8028 5.15015Z" fill="#3EEDBF"/>
<path fill-rule="evenodd" clip-rule="evenodd" d="M8.85326 17.0125C8.66559 17.0802 8.23521 17.1256 7.95916 17.1256C7.09812 17.1256 6.469 16.8311 6.10473 16.3331C5.82869 15.9595 5.70726 15.4727 5.70726 14.6913V12.7669H4.47839V11.5215H5.70726V8.97437H7.14238V11.5215H8.89238V12.7669H7.14238V14.8612C7.14238 15.2009 7.19755 15.4048 7.31899 15.5519C7.4624 15.7216 7.69419 15.8236 8.04754 15.8236C8.25719 15.8236 8.53311 15.7895 8.63254 15.7669L8.85326 17.0125Z" fill="#292929"/>
<path fill-rule="evenodd" clip-rule="evenodd" d="M27.2476 19.7288L28.7267 16.4569L26.3314 11.521H27.9098L29.4775 14.8155L30.9235 11.521H32.4358L28.7487 19.7288H27.2476Z" fill="#292929"/>
<path fill-rule="evenodd" clip-rule="evenodd" d="M11.7659 15.8125C10.9329 15.8125 10.2576 15.1198 10.2576 14.2654C10.2576 13.4111 10.9329 12.7185 11.7659 12.7185C12.599 12.7185 13.2743 13.4111 13.2743 14.2654C13.2743 15.1198 12.599 15.8125 11.7659 15.8125ZM13.2044 11.5201V11.9616C12.7849 11.6107 12.244 11.4067 11.6369 11.4067C10.1799 11.4067 9.00977 12.6523 9.00977 14.2711C9.00977 15.0183 9.27461 15.6976 9.69421 16.1957C10.1689 16.7618 10.9194 17.1241 11.7142 17.1241C12.2551 17.1241 12.7629 16.9542 13.2044 16.5694V17.0109H14.5841V11.5201H13.2044Z" fill="#292929"/>
<path fill-rule="evenodd" clip-rule="evenodd" d="M18.0518 15.8129C17.2187 15.8129 16.5435 15.1204 16.5435 14.266C16.5435 13.4116 17.2187 12.719 18.0518 12.719C18.8848 12.719 19.5602 13.4116 19.5602 14.266C19.5602 15.1204 18.8848 15.8129 18.0518 15.8129ZM18.1809 11.4073C17.5737 11.4073 17.0328 11.6112 16.6134 11.9622V8.97339H15.2336V17.0115H16.6134V16.5698C17.0548 16.9547 17.5626 17.1246 18.1036 17.1246C18.8983 17.1246 19.6488 16.7624 20.1236 16.1963C20.5431 15.6982 20.8081 15.0188 20.8081 14.2716C20.8081 12.6528 19.6378 11.4073 18.1809 11.4073Z" fill="#292929"/>
<path fill-rule="evenodd" clip-rule="evenodd" d="M23.9804 15.8129C23.1473 15.8129 22.4719 15.1204 22.4719 14.266C22.4719 13.4116 23.1473 12.719 23.9804 12.719C24.8134 12.719 25.4886 13.4116 25.4886 14.266C25.4886 15.1204 24.8134 15.8129 23.9804 15.8129ZM24.1094 11.4073C23.5022 11.4073 22.9615 11.6112 22.542 11.9622V8.97339H21.1622V17.0115H22.542V16.5698C22.9834 16.9547 23.4912 17.1246 24.0321 17.1246C24.8269 17.1246 25.5775 16.7624 26.052 16.1963C26.4717 15.6982 26.7366 15.0188 26.7366 14.2716C26.7366 12.6528 25.5664 11.4073 24.1094 11.4073Z" fill="#292929"/>
<path fill-rule="evenodd" clip-rule="evenodd" d="M35.8247 9.17163L35.0955 10.467H36.5546C36.5061 9.93243 36.2288 9.46681 35.8247 9.17163ZM35.888 9.54497C36.0708 9.73443 36.2029 9.96819 36.2714 10.2239H35.5058L35.888 9.54497Z" fill="#292929"/>
<path fill-rule="evenodd" clip-rule="evenodd" d="M34.0819 12.2683C34.3041 12.3728 34.5506 12.4328 34.8112 12.4328C35.0717 12.4328 35.3181 12.3728 35.5404 12.2683L34.8111 10.9729L34.0819 12.2683Z" fill="#292929"/>
<path fill-rule="evenodd" clip-rule="evenodd" d="M35.0955 10.804L35.8246 12.0994C36.2288 11.8042 36.506 11.3386 36.5546 10.804H35.0955Z" fill="#292929"/>
<path fill-rule="evenodd" clip-rule="evenodd" d="M35.5403 9.00041C35.318 8.89589 35.0715 8.83594 34.8112 8.83594C34.5504 8.83594 34.3041 8.89589 34.0819 9.00041L34.811 10.2958L35.5403 9.00041Z" fill="#292929"/>
<path fill-rule="evenodd" clip-rule="evenodd" d="M34.5001 10.7869H33.0408C33.0894 11.3215 33.3667 11.7871 33.7708 12.0823L34.5001 10.7869Z" fill="#292929"/>
<path fill-rule="evenodd" clip-rule="evenodd" d="M34.5001 10.448L33.7708 9.15259C33.3665 9.44764 33.0894 9.9134 33.0408 10.448H34.5001Z" fill="#292929"/>
</g>
<defs>
<clipPath id="clip0_7895_31558">
<rect width="41" height="26" fill="white"/>
</clipPath>
</defs>
</svg>
