<svg width="41" height="26" viewBox="0 0 41 26" fill="none" xmlns="http://www.w3.org/2000/svg">
<g clip-path="url(#clip0_7895_31547)">
<path d="M37.6923 3.46667V4.816V21.5947V22.5333C37.6923 23.3547 37.0411 24 36.2123 24H4.48005C3.65122 24 3 23.3547 3 22.5333V3.46667C3 2.64533 3.65122 2 4.48005 2H36.2123C37.0411 2 37.6923 2.64533 37.6923 3.46667Z" fill="white"/>
<path d="M34.7914 21.5947L33.2522 19.8933L31.6537 21.5947H28.516H21.767V13.6747H18.6293L22.5366 4.816H26.3255L27.6872 7.86667V4.816H32.4233L33.2522 7.104L34.081 4.816H37.6923V3.46667C37.6923 2.64533 37.0411 2 36.2123 2H4.48005C3.65122 2 3 2.64533 3 3.46667V22.5333C3 23.3547 3.65122 24 4.48005 24H36.2123C37.0411 24 37.6923 23.3547 37.6923 22.5333V21.5947H34.7914Z" fill="#0071CE"/>
<path d="M35.2058 20.656H37.6923L34.4362 17.1947L37.6923 13.792H35.265L33.1929 16.0213L31.1801 13.792H28.6936L32.0089 17.2533L28.6936 20.656H31.1209L33.1929 18.4267L35.2058 20.656Z" fill="#0071CE"/>
<path d="M24.7271 19.072V18.016H28.6344V16.432H24.7271V15.376H28.6936V13.792H22.8326V20.656H28.6936V19.072H24.7271Z" fill="#0071CE"/>
<path d="M35.857 12.7947H37.6331V5.87207L34.7914 5.93074L33.2522 10.2134L31.6537 5.93074H28.6936V12.7947H30.5881V7.98407L32.3641 12.7947H34.0218L35.857 7.98407V12.7947Z" fill="#0071CE"/>
<path d="M25.6744 5.93091H23.2471L20.1686 12.7949H22.2406L22.8327 11.4456H26.0296L26.6216 12.7949H28.7529L25.6744 5.93091ZM23.4839 9.86158L24.4311 7.63224L25.3783 9.86158H23.4839Z" fill="#0071CE"/>
<path d="M35.9755 17.0184L37.6923 18.8958V15.1411L35.9755 17.0184Z" fill="#0071CE"/>
</g>
<defs>
<clipPath id="clip0_7895_31547">
<rect width="41" height="26" fill="white"/>
</clipPath>
</defs>
</svg>
