<svg width="41" height="26" viewBox="0 0 41 26" fill="none" xmlns="http://www.w3.org/2000/svg">
<g clip-path="url(#clip0_7895_31515)">
<path d="M33.1821 3H7.81843C6.26199 3 5.00024 4.11929 5.00024 5.5V20.5C5.00024 21.8807 6.26199 23 7.81843 23H33.1821C34.7385 23 36.0002 21.8807 36.0002 20.5V5.5C36.0002 4.11929 34.7385 3 33.1821 3Z" fill="white"/>
<path fill-rule="evenodd" clip-rule="evenodd" d="M7.81843 4C6.69829 4 6.00024 4.78082 6.00024 5.5V20.5C6.00024 21.2192 6.69829 22 7.81843 22H33.1821C34.3022 22 35.0002 21.2192 35.0002 20.5V5.5C35.0002 4.78082 34.3022 4 33.1821 4H7.81843ZM4.00024 5.5C4.00024 3.45776 5.82568 2 7.81843 2H33.1821C35.1748 2 37.0002 3.45776 37.0002 5.5V20.5C37.0002 22.5422 35.1748 24 33.1821 24H7.81843C5.82568 24 4.00024 22.5422 4.00024 20.5V5.5Z" fill="#6FA059"/>
<path d="M10.2221 14.2221C10.0742 13.8458 10.0002 13.4385 10.0002 13C10.0002 12.5615 10.0742 12.1556 10.2221 11.7822C10.3701 11.4059 10.5721 11.0891 10.8284 10.8317C11.0872 10.5714 11.3936 10.3678 11.7476 10.2207C12.1016 10.0736 12.4793 10 12.8808 10C13.1661 10 13.4316 10.0396 13.6772 10.1188C13.9255 10.1952 14.1395 10.3027 14.3191 10.4413C14.5014 10.5799 14.6585 10.7298 14.7906 10.8911C14.9227 11.0495 15.0402 11.2249 15.1433 11.4173L14.1527 11.9392C14.0365 11.6959 13.8635 11.495 13.6336 11.3366C13.4038 11.1782 13.1529 11.099 12.8808 11.099C12.3895 11.099 11.984 11.2786 11.6644 11.6379C11.3448 11.9972 11.185 12.4512 11.185 13C11.185 13.5488 11.3448 14.0042 11.6644 14.3663C11.984 14.7256 12.3895 14.9052 12.8808 14.9052C13.1529 14.9052 13.4038 14.826 13.6336 14.6676C13.8635 14.5092 14.0365 14.3069 14.1527 14.0608L15.1433 14.5743C14.6308 15.5248 13.8767 16 12.8808 16C12.4793 16 12.1016 15.9264 11.7476 15.7793C11.3936 15.6322 11.0872 15.43 10.8284 15.1726C10.5721 14.9123 10.3701 14.5955 10.2221 14.2221Z" fill="#6FA059"/>
<path d="M15.1987 15.8939L17.2908 10.0976H18.737L20.8212 15.8939H19.5057L19.1729 14.9137H16.855L16.5142 15.8939H15.1987ZM17.168 13.8274H18.8559L18.0119 11.3324L17.168 13.8274Z" fill="#6FA059"/>
<path d="M20.9004 15.075L21.5265 14.1372C21.7352 14.3692 21.9861 14.5587 22.2793 14.7058C22.5725 14.8501 22.8948 14.9222 23.2461 14.9222C23.5472 14.9222 23.7784 14.86 23.9395 14.7355C24.1033 14.6082 24.1852 14.4554 24.1852 14.2772C24.1852 14.1697 24.1495 14.0764 24.0782 13.9972C24.0068 13.9151 23.9104 13.8487 23.7889 13.7977C23.6701 13.7468 23.5327 13.7001 23.3768 13.6577C23.221 13.6153 23.0572 13.5728 22.8855 13.5304C22.7138 13.4851 22.5421 13.4356 22.3704 13.3819C22.1987 13.3253 22.035 13.2532 21.8791 13.1655C21.7233 13.075 21.5846 12.9703 21.4631 12.8515C21.3442 12.7327 21.2491 12.5813 21.1778 12.3975C21.1065 12.2136 21.0708 12.0057 21.0708 11.7737C21.0708 11.2758 21.257 10.8586 21.6295 10.5219C22.0046 10.1825 22.5025 10.0127 23.1233 10.0127C23.9897 10.0127 24.6936 10.2815 25.2352 10.819L24.5933 11.7228C24.3793 11.5134 24.135 11.355 23.8602 11.2475C23.5855 11.14 23.3055 11.0863 23.0202 11.0863C22.7772 11.0863 22.587 11.14 22.4497 11.2475C22.315 11.3522 22.2476 11.4936 22.2476 11.6719C22.2476 11.7793 22.2912 11.8741 22.3784 11.9562C22.4682 12.0354 22.5857 12.0976 22.731 12.1429C22.8789 12.1853 23.0453 12.2334 23.2302 12.2871C23.4178 12.338 23.608 12.389 23.8008 12.4399C23.9936 12.488 24.1825 12.5587 24.3674 12.6521C24.555 12.7426 24.7214 12.8487 24.8667 12.9703C25.0146 13.0891 25.1321 13.2489 25.2193 13.4498C25.3091 13.6506 25.354 13.8798 25.354 14.1372C25.354 14.6917 25.1691 15.1414 24.7993 15.4866C24.4321 15.8289 23.8959 16 23.1906 16C22.2318 16 21.4684 15.6917 20.9004 15.075Z" fill="#6FA059"/>
<path d="M26.1306 15.8939V10.0976H27.2836V12.3762H29.8393V10.0976H31.0002V15.8939H29.8393V13.4625H27.2836V15.8939H26.1306Z" fill="#6FA059"/>
</g>
<defs>
<clipPath id="clip0_7895_31515">
<rect width="41" height="26" fill="white"/>
</clipPath>
</defs>
</svg>
